<?xml version="1.0" encoding="utf-8"?>
<!-- Generator: Adobe Illustrator 23.0.0, SVG Export Plug-In . SVG Version: 6.00 Build 0)  -->
<svg version="1.1" id="레이어_1" xmlns="http://www.w3.org/2000/svg" xmlns:xlink="http://www.w3.org/1999/xlink" x="0px"
	 y="0px" viewBox="0 0 2011 1650" style="enable-background:new 0 0 2011 1650;" xml:space="preserve">
<style type="text/css">
	.st0{display:none;}
	.st1{display:inline;}
</style>
<path d="M1614.28,752.23c0,0,214.43-100.22,212.1-354.28c0,0,6.99-316.99-421.87-382.25H574.75v62.93c0,0,228.42-37.29,228.42,272.7
	c9.32,501.12,9.32,501.12,9.32,501.12s-267.72-393.05-634.69,2.41c0,0-393.19,533.67,257.1,780.73c581.53,0,1016.22,0,1016.22,0
	s424.2-6.99,505.78-389.24C1956.9,1246.36,2010.51,880.43,1614.28,752.23z M805.5,1343.96c0,0-53.61,191.42-254.06,203.07
	c0,0-233.08,16.32-284.36-272.7c0,0-32.63-237.74,69.92-368.26c0,0,104.89-142.18,300.67-76.92c0,0,142.18,41.95,167.82,221.42
	V1343.96z M1047.9,120.59c0,0,0,0,254.06,0c88.57-4.66,146.84,34.96,146.84,34.96c139.85,74.59,139.78,244.73,139.78,244.73
	c46.55,282.8-256.32,323.98-256.32,323.98H1047.9V120.59z M959.33,1593.65c0,0-27.97,48.95-65.26,0V62.32c0,0,32.63-60.6,65.26,0
	V1593.65z M1176.09,1528.38c-121.2-16.32-128.19-184.42-128.19-184.42V825.39c0,0,0,0,382.25,0c62.93,0.91,81.58,17.74,81.58,17.74
	c221.42,88.57,202.78,312.32,202.78,312.32C1707.83,1547.2,1385.86,1528.38,1176.09,1528.38z"/>
<g class="st0">
	<path class="st1" d="M781.81,1168.78c-0.49-2.42-0.73-4.99-0.73-7.71c-3.58,2.33-6.96,4-10.14,5.02
		c-3.17,1.02-6.58,1.53-10.21,1.53c-7.36,0-13.66-2.21-18.89-6.62c-3.34-2.81-5.91-6.34-7.7-10.59c-1.79-4.24-2.69-8.89-2.69-13.93
		c0-5.34,0.97-10.27,2.91-14.81c1.94-4.53,4.65-8.31,8.14-11.31c5.52-4.66,12.08-6.98,19.69-6.98c3.68,0,6.83,0.53,9.44,1.6
		c2.61,1.07,5.67,3.01,9.15,5.82v-26.9c0-5.27-0.88-9.06-2.64-11.38c-1.76-2.32-4.66-3.48-8.71-3.48v-1.75l22.34-2.84v84.2
		c0,5.47,0.87,9.37,2.62,11.7c1.75,2.32,4.63,3.49,8.66,3.49v1.82L781.81,1168.78z M780.79,1134.87c0-6.74-0.29-11.8-0.87-15.17
		c-0.58-3.37-1.62-6.12-3.12-8.26c-1.31-1.84-3.06-3.32-5.25-4.44c-2.2-1.11-4.46-1.67-6.78-1.67c-5.17,0-9.64,2.43-13.41,7.28
		c-2.27,2.91-4.05,6.38-5.33,10.4c-1.28,4.03-1.92,8.17-1.92,12.44c0,4.17,0.6,8.26,1.81,12.26c1.21,4,2.85,7.43,4.93,10.3
		c3.62,4.95,8.07,7.42,13.34,7.42c2.51,0,4.9-0.63,7.17-1.89c2.27-1.26,4.11-3.01,5.51-5.24c1.45-2.33,2.46-5.2,3.04-8.62
		C780.5,1146.26,780.79,1141.32,780.79,1134.87z"/>
	<path class="st1" d="M819.5,1126.72c-0.19,2.38-0.29,4.1-0.29,5.17c0,4.22,0.62,8.34,1.85,12.37c1.23,4.03,2.91,7.37,5.04,10.04
		c2.18,2.72,4.87,4.85,8.09,6.4c3.22,1.55,6.59,2.33,10.12,2.33c2.61,0,5.09-0.44,7.43-1.31c2.34-0.87,4.29-2.08,5.84-3.64
		c1.74-1.7,3.24-4.41,4.5-8.15l1.53,0.51c-1.26,5.67-3.97,9.96-8.11,12.84c-4.15,2.89-9.67,4.33-16.55,4.33
		c-5.97,0-11.08-0.95-15.35-2.84c-4.27-1.89-7.88-4.8-10.84-8.73c-4.12-5.48-6.18-12.22-6.18-20.23c0-10.91,3.9-19.47,11.71-25.68
		c5.68-4.51,12.15-6.77,19.43-6.77c3.88,0,7.47,0.69,10.77,2.07c3.3,1.38,6.09,3.38,8.37,6c3.54,4.07,5.31,9.17,5.31,15.28H819.5z
		 M851.22,1123.88c-0.34-4.85-1.23-8.59-2.68-11.2c-1.3-2.38-3.04-4.26-5.21-5.64c-2.17-1.38-4.49-2.07-6.95-2.07
		c-4.15,0-7.79,1.8-10.9,5.38c-3.11,3.59-4.96,8.1-5.54,13.53H851.22z"/>
	<path class="st1" d="M904.12,1166.3v-1.67c2.81-0.15,5.08-0.55,6.8-1.2c1.72-0.66,3.24-1.66,4.55-3.02
		c1.55-1.55,2.59-3.52,3.13-5.89c0.53-2.38,0.8-6.06,0.8-11.06v-53.62c0-5-0.27-8.68-0.8-11.06c-0.53-2.38-1.58-4.34-3.13-5.89
		c-1.31-1.41-2.84-2.42-4.58-3.06c-1.75-0.63-4-1.02-6.77-1.16v-1.67h47.8c4.85,0,8.03,0.05,9.53,0.15
		c5.53,0.44,10.11,1.75,13.75,3.93c3.15,1.94,5.59,4.49,7.31,7.64c1.72,3.15,2.58,6.69,2.58,10.62c0,6.35-1.96,11.57-5.89,15.64
		c-1.41,1.5-3.01,2.75-4.8,3.75c-1.8,0.99-4.39,2.1-7.79,3.31c4.66,0.78,8.27,1.63,10.84,2.55c2.57,0.92,4.9,2.21,6.98,3.86
		c3.1,2.52,5.52,5.66,7.24,9.42c1.72,3.76,2.58,7.82,2.58,12.19c0,4.41-0.89,8.45-2.66,12.11c-1.77,3.66-4.23,6.61-7.38,8.84
		c-2.86,1.99-6.27,3.37-10.22,4.15c-3.95,0.78-9.52,1.16-16.7,1.16H904.12z M935.34,1069.24v43.22h5.89c2.76,0,5.63-0.19,8.59-0.58
		c2.57-0.39,4.64-0.85,6.22-1.38c1.58-0.53,3.02-1.26,4.33-2.18c2.47-1.84,4.38-4.21,5.71-7.09c1.33-2.89,2-6.08,2-9.57
		c0-3.69-0.69-7.19-2.07-10.51c-1.38-3.32-3.21-5.91-5.49-7.75c-1.99-1.6-4.26-2.69-6.8-3.27c-2.55-0.58-6.42-0.87-11.6-0.87H935.34
		z M935.34,1114.72v29.98c0,3.64,0.25,6.57,0.76,8.8c0.51,2.23,1.35,4.12,2.51,5.68c2.47,3.25,6.72,4.87,12.73,4.87
		c7.81,0,13.98-2.13,18.52-6.4c4.53-4.27,6.8-10.09,6.8-17.46c0-4.22-0.7-8.14-2.11-11.75c-1.41-3.61-3.3-6.39-5.68-8.33
		c-4.37-3.59-11.2-5.38-20.52-5.38H935.34z"/>
	<path class="st1" d="M1015.23,1126.72c-0.19,2.38-0.29,4.1-0.29,5.17c0,4.22,0.62,8.34,1.85,12.37c1.23,4.03,2.91,7.37,5.04,10.04
		c2.18,2.72,4.87,4.85,8.09,6.4c3.21,1.55,6.59,2.33,10.12,2.33c2.61,0,5.09-0.44,7.43-1.31c2.34-0.87,4.29-2.08,5.84-3.64
		c1.74-1.7,3.24-4.41,4.5-8.15l1.53,0.51c-1.26,5.67-3.96,9.96-8.11,12.84c-4.15,2.89-9.67,4.33-16.55,4.33
		c-5.97,0-11.08-0.95-15.35-2.84c-4.27-1.89-7.88-4.8-10.84-8.73c-4.12-5.48-6.18-12.22-6.18-20.23c0-10.91,3.9-19.47,11.71-25.68
		c5.68-4.51,12.15-6.77,19.43-6.77c3.88,0,7.47,0.69,10.77,2.07c3.3,1.38,6.09,3.38,8.37,6c3.54,4.07,5.31,9.17,5.31,15.28H1015.23z
		 M1046.95,1123.88c-0.34-4.85-1.23-8.59-2.68-11.2c-1.3-2.38-3.04-4.26-5.21-5.64c-2.17-1.38-4.49-2.07-6.95-2.07
		c-4.15,0-7.79,1.8-10.9,5.38c-3.12,3.59-4.96,8.1-5.54,13.53H1046.95z"/>
	<path class="st1" d="M1084.86,1103.37v55.21c0,6.39-0.02,10.27-0.07,11.62c-0.29,5.04-1.24,9.1-2.84,12.2
		c-3.4,6.49-9.53,9.73-18.37,9.73c-4.71,0-8.47-0.83-11.26-2.47c-2.79-1.65-4.19-3.86-4.19-6.62c0-1.5,0.41-2.74,1.24-3.71
		c0.83-0.97,1.89-1.45,3.2-1.45c2.33,0,3.9,1.41,4.73,4.22l1.02,3.49c1.02,3.3,3.18,4.95,6.48,4.95c1.7,0,3.21-0.45,4.55-1.34
		c1.33-0.9,2.34-2.19,3.02-3.89c0.53-1.26,0.92-3.22,1.16-5.88c0.24-2.66,0.36-6.22,0.36-10.68v-45.32c0-5.47-0.86-9.38-2.58-11.73
		c-1.72-2.35-4.62-3.52-8.69-3.52v-1.82L1084.86,1103.37z M1079.08,1077.25c-1.9,0-3.49-0.61-4.76-1.82
		c-1.27-1.21-1.9-2.74-1.9-4.58c0-1.79,0.65-3.31,1.94-4.55s2.87-1.86,4.72-1.86c1.85,0,3.41,0.62,4.68,1.86
		c1.27,1.24,1.9,2.75,1.9,4.55c0,1.84-0.62,3.37-1.87,4.58C1082.55,1076.64,1080.98,1077.25,1079.08,1077.25z"/>
	<path class="st1" d="M1154.78,1159.24l1.24,0.73c-1.75,5.09-5.75,7.64-12.01,7.64c-3.45,0-6.32-0.85-8.6-2.55
		c-1.51-1.12-3.06-3.06-4.66-5.82c-3.26,2.91-5.71,4.83-7.36,5.75c-3.16,1.75-6.83,2.62-11,2.62c-5.34,0-9.58-1.29-12.72-3.86
		c-3.13-2.57-4.7-6.04-4.7-10.4c0-4.03,1.28-7.4,3.86-10.11c1.46-1.5,3.13-2.7,5.02-3.6c1.89-0.9,4.63-1.81,8.22-2.73
		c4.22-1.07,7.34-1.96,9.35-2.69c2.01-0.73,3.7-1.6,5.06-2.62c1.55-1.11,2.62-2.42,3.2-3.93c0.58-1.5,0.87-3.59,0.87-6.26
		c0-5.68-1.07-9.82-3.2-12.44c-0.97-1.21-2.22-2.18-3.75-2.91c-1.53-0.73-3.12-1.09-4.77-1.09c-1.99,0-3.76,0.51-5.31,1.53
		c-1.55,1.02-2.72,2.43-3.49,4.22l-1.82,4.22c-0.97,2.28-2.72,3.42-5.24,3.42c-1.65,0-3.03-0.55-4.15-1.64
		c-1.12-1.09-1.67-2.46-1.67-4.11c0-2.47,1.75-4.56,5.25-6.26c1.89-0.87,4.24-1.59,7.03-2.15c2.79-0.56,5.53-0.84,8.2-0.84
		c3.01,0,6.15,0.39,9.4,1.16c3.26,0.78,5.98,1.77,8.16,2.98c3.16,1.79,5.13,4.12,5.9,6.98c0.39,1.46,0.58,3.91,0.58,7.35v26.92
		c0,4.56,0.19,7.66,0.58,9.31c0.82,3.44,2.81,5.17,5.97,5.17c1.5,0,2.68-0.27,3.53-0.8
		C1152.61,1161.91,1153.62,1160.84,1154.78,1159.24z M1130.7,1130.58c-2.61,2.18-5.49,4.1-8.63,5.75c-3.53,1.89-5.97,3.32-7.33,4.29
		c-1.35,0.97-2.59,2.14-3.7,3.49c-2.27,2.81-3.41,6.09-3.41,9.82c0,3.2,0.88,5.85,2.65,7.93c1.76,2.09,4,3.13,6.71,3.13
		c2.37,0,4.61-0.74,6.71-2.22c2.1-1.48,3.69-3.46,4.75-5.93c1.5-3.25,2.25-7.95,2.25-14.12V1130.58z"/>
	<path class="st1" d="M1173.92,1114.56c1.75-3.05,3.71-5.36,5.89-6.91c4.03-2.86,8.61-4.29,13.75-4.29c3.15,0,5.55,0.7,7.2,2.11
		c1.5,1.26,2.26,2.81,2.26,4.65c0,1.36-0.45,2.47-1.35,3.34c-0.9,0.87-2.05,1.31-3.46,1.31c-1.65,0-3.08-0.68-4.29-2.04l-2.26-2.47
		c-1.79-1.89-3.9-2.83-6.33-2.83c-3.3,0-5.87,2.13-7.71,6.39c-1.84,4.26-2.76,10.2-2.76,17.8v13.59l0.07,5.52
		c0,3.29,0.19,5.7,0.58,7.23c0.39,1.53,1.14,2.8,2.26,3.81c1.36,1.31,3.86,2.3,7.49,2.98v1.53h-32.16v-1.53
		c2.91-0.39,4.99-0.93,6.26-1.63c1.26-0.7,2.28-1.9,3.06-3.58c0.53-1.11,0.91-2.79,1.13-5.03c0.22-2.24,0.33-5.49,0.33-9.74v-17.88
		c0-4.97-0.12-8.46-0.36-10.46c-0.24-2-0.78-3.63-1.6-4.89c-0.83-1.35-1.82-2.33-2.98-2.93c-1.16-0.6-2.84-0.98-5.02-1.12v-1.53
		l18.76-2.62C1173.5,1107.72,1173.92,1111.45,1173.92,1114.56z"/>
	<path class="st1" d="M1222.74,1114.56c1.75-3.05,3.71-5.36,5.89-6.91c4.03-2.86,8.61-4.29,13.75-4.29c3.15,0,5.55,0.7,7.2,2.11
		c1.5,1.26,2.26,2.81,2.26,4.65c0,1.36-0.45,2.47-1.35,3.34c-0.9,0.87-2.05,1.31-3.46,1.31c-1.65,0-3.08-0.68-4.29-2.04l-2.26-2.47
		c-1.79-1.89-3.9-2.83-6.33-2.83c-3.3,0-5.87,2.13-7.71,6.39c-1.84,4.26-2.76,10.2-2.76,17.8v13.59l0.07,5.52
		c0,3.29,0.19,5.7,0.58,7.23c0.39,1.53,1.14,2.8,2.26,3.81c1.36,1.31,3.86,2.3,7.49,2.98v1.53h-32.16v-1.53
		c2.91-0.39,4.99-0.93,6.26-1.63c1.26-0.7,2.28-1.9,3.06-3.58c0.53-1.11,0.91-2.79,1.13-5.03c0.22-2.24,0.33-5.49,0.33-9.74v-17.88
		c0-4.97-0.12-8.46-0.36-10.46c-0.24-2-0.78-3.63-1.6-4.89c-0.83-1.35-1.82-2.33-2.98-2.93c-1.16-0.6-2.84-0.98-5.02-1.12v-1.53
		l18.76-2.62C1222.33,1107.72,1222.74,1111.45,1222.74,1114.56z"/>
	<path class="st1" d="M1248.58,1104.46h28.23v1.6c-1.99,0.29-3.42,0.68-4.29,1.16c-1.89,1.07-2.84,2.71-2.84,4.94
		c0,1.94,0.99,5.4,2.97,10.39l12.16,31.17l10.62-26.23c2.62-6.54,3.93-11.16,3.93-13.88c0-2.18-0.61-3.91-1.82-5.19
		c-1.21-1.28-2.98-2.07-5.31-2.36v-1.6h20.81v1.6c-2.09,0.58-3.63,1.19-4.62,1.82c-0.99,0.63-1.95,1.63-2.87,2.98
		c-1.41,2.13-3.64,6.91-6.69,14.33l-21.1,51.22c-2.52,6.11-4.56,10.09-6.11,11.93c-2.62,3.06-5.94,4.58-9.97,4.58
		c-2.57,0-4.65-0.5-6.22-1.49c-1.58-0.99-2.36-2.29-2.36-3.89c0-1.26,0.46-2.27,1.38-3.02c0.92-0.75,2.13-1.13,3.63-1.13
		c1.26,0,2.71,0.34,4.35,1.02c1.6,0.63,2.62,1.02,3.08,1.16c0.46,0.15,1,0.22,1.63,0.22c3,0,5.44-2.26,7.33-6.79l2.25-5.55
		c0.97-2.34,1.45-4.14,1.45-5.41c0-1.79-0.92-4.92-2.75-9.37l-15.08-36.26l-2.17-5.23c-1.31-3.1-2.33-5.31-3.06-6.61
		c-0.73-1.31-1.46-2.25-2.18-2.83c-1.21-0.92-2.67-1.48-4.37-1.67V1104.46z"/>
</g>
</svg>
